# xmcd
#
# Track frame offsets: 
#        150
#        14800
#        32530
#        47480
#        64704
#        80614
#        99651
#        115195
#        132905
#        149218
#        164720
#        180566
#        194112
#        208948
#
# Disc length: 3002 seconds
#
# Revision: 0
# Processed by: cddbd v1.5.2PL0 Copyright (c) Steve Scherf et al.
# Submitted via: ExactAudioCopyFreeDBPlugin 1.0
#
DISCID=d90bb80e
DTITLE=Abigail White - War Stories
DYEAR=2013
DGENRE=Country
TTITLE0=Prove Me Wrong
TTITLE1=Get Off My Lawn
TTITLE2=No One Needs To Know
TTITLE3=Drive
TTITLE4=Let You Go
TTITLE5=Like That
TTITLE6=Brand New Boyfriend
TTITLE7=From A Distance
TTITLE8=More
TTITLE9=War Stories
TTITLE10=Maybe I'll Run
TTITLE11=What Daddy Don't KNow
TTITLE12=Somebody Who Does
TTITLE13=Better
EXTD=
EXTT0=
EXTT1=
EXTT2=
EXTT3=
EXTT4=
EXTT5=
EXTT6=
EXTT7=
EXTT8=
EXTT9=
EXTT10=
EXTT11=
EXTT12=
EXTT13=
PLAYORDER=
